<svg width="181" height="180" viewBox="0 0 181 180" fill="none" xmlns="http://www.w3.org/2000/svg">
<path d="M0 90.3108C26.0376 92.2488 41.3592 85.9788 58.1628 58.6188C68.9472 41.6784 77.6568 38.2584 90.1968 38.2584C103.74 38.2584 112.358 44.5284 123.052 61.4688C137.461 84.018 151.324 92.2488 179.96 90.63L180.28 83.2656C155.633 85.1808 144.37 75.9468 129.869 53.7168C118.036 35.91 107.981 26.4936 90.1968 26.4936C71.2956 26.4936 61.6512 34.2456 49.7268 53.1468C34.4052 76.7448 23.0508 82.7184 0.410401 81.6012L0 90.3108Z" fill="#A43D2B"/>
<path d="M1.2996 99.6588C22.5036 99.6588 34.7472 106.886 49.8408 129.116C62.1528 147.014 73.2564 152.418 89.9688 152.418C107.388 152.418 117.124 143.777 128.957 125.97C142.409 106.202 154.493 100.388 177.749 100.958L179.14 94.62C155.633 95.9652 142.09 90.6528 126.494 68.0808C114.16 50.2056 107.297 42.5904 89.9688 42.5904C75.3768 42.5904 68.5368 49.7952 56.5896 68.742C43.2288 89.832 32.4444 96.5352 7.7976 95.19L0.4104 95.0304L1.2996 99.6588ZM27.2688 95.5776C40.7208 92.3172 48.4044 85.4544 60.3516 66.5076C70.3836 50.6844 77.1324 46.6944 89.9688 46.6944C103.01 46.6944 109.645 52.44 121.478 70.2468C131.738 85.6824 139.855 92.8188 151.21 96.216C139.855 98.8608 133.79 102.281 121.82 119.221C111.036 134.474 103.102 140.22 89.9688 140.22C75.8784 140.22 68.5368 134.634 57.1824 117.694C48.2448 104.515 42.9324 99.75 27.2688 95.5776Z" fill="#A43D2B"/>
<path d="M2.8956 70.2468C21.1128 70.2468 31.8972 63.6804 45.3492 42.4536C58.3908 22.002 71.364 14.7972 90.7668 14.7972C110.147 14.7972 122.482 23.4384 135.432 43.89C146.308 60.99 155.633 69.1524 177.43 70.2468L175.834 63.84C157.616 62.3124 150.343 54.7884 139.559 37.848C125.149 15.3672 110.306 0 86.8908 0H90.1968C65.55 0 49.3848 10.8756 35.9328 32.034C25.1484 48.9744 18.0576 54.7884 4.6968 55.4496L2.8956 70.2468Z" fill="black"/>
<path d="M4.69681 109.463C23.5068 109.463 34.3596 116.531 47.994 137.21C62.0616 159.007 74.7384 166.28 90.7668 166.28C109.303 166.28 122.117 157.411 135.592 136.96C148.132 118.013 158.186 111.082 177.338 110.352L178.068 117.192C160.649 118.4 152.737 124.146 139.559 143.914C124.397 166.463 109.372 179.96 86.8908 179.96H90.0372C67.5564 179.96 52.0524 167.831 37.5516 145.601C27.2688 130.142 18.7416 124.078 6.20161 122.801L4.69681 109.463Z" fill="black"/>
<path d="M8.9604 45.1668C21.3408 43.3884 26.9496 38.8284 36.5028 23.6436C41.6328 15.39 46.6716 10.1688 51.8928 5.7684C32.5128 16.0512 18.3996 29.3892 8.9604 45.1668Z" fill="#A43D2B"/>
<path d="M127.406 6.42961C134.52 10.3512 139.741 16.2336 147.197 27.7248C155.975 41.2224 161.356 45.1896 172.391 47.5152C162.017 29.1612 149.135 16.7352 127.406 6.42961Z" fill="#A43D2B"/>
<path d="M8.8008 132.491C18.7416 150.457 32.4444 164.502 51.8244 174.306C44.6196 169.29 39.5808 163.704 31.1448 150.594C23.4384 138.624 18.3996 134.543 8.8008 132.491Z" fill="#A43D2B"/>
<path d="M127.156 173.987C145.76 163.955 158.734 151.346 168.538 134.087C159.281 136.321 154.06 140.471 145.373 154.128C138.1 165.551 133.768 169.883 127.156 173.987Z" fill="#A43D2B"/>
<path d="M58.7328 92.5908L67.4196 88.8288L72.6408 80.2788C78.546 70.3608 84.5196 66.0288 94.392 66.0288C98.8152 66.0288 102.053 67.0548 105.929 69.4716C100.457 61.8792 95.5776 59.3028 88.806 59.3028C79.5492 59.3028 73.1196 64.3188 65.7096 78.1356L58.7328 92.5908Z" fill="black"/>
<path d="M59.9412 93.0468L68.2176 105.929C73.8264 114.935 78.1584 117.26 85.7964 117.26C95.8968 117.26 101.734 112.016 109.144 98.1996L115.756 86.4576L109.144 76.6764C103.238 68.1948 98.9064 65.8464 92.0664 65.8464C84.8844 65.8464 79.2528 69.8364 73.7808 79.4808L71.5008 83.0376L75.0576 88.8744C80.0964 97.5156 83.1744 99.8184 89.0112 99.8184C94.3236 99.8184 98.1768 96.5352 100.936 89.49C98.3364 83.7444 94.848 80.7804 89.9688 80.7804C83.8128 80.7804 78.774 85.6824 78.774 92.0208C78.774 99.1572 84.3828 104.105 91.7928 104.105C97.8576 104.105 102.121 100.844 107.16 91.884L108.596 88.9884L110.42 92.2488L107.114 98.5188C100.502 110.42 94.8936 114.593 86.1156 114.593C78.432 114.593 73.3932 110.831 66.7812 100.138L59.9412 93.0468Z" fill="black"/>
<path d="M120.635 93.0468L114.866 99.6588C102.326 117.694 96.7176 122.026 85.6824 122.026C75.9696 122.026 70.1328 118.013 60.1008 104.515L53.4888 97.8804L48.906 101.802L54.6744 106.955C68.1264 126.13 74.9664 131.875 87.9396 131.875C100.274 131.875 107.73 125.537 119.563 107.73L126.677 99.0888L120.635 93.0468Z" fill="#A43D2B"/>
</svg>
